<?xml version="1.0" encoding="utf-8"?><svg width="64" height="64" viewBox="0 0 64 64" fill="none" xmlns="http://www.w3.org/2000/svg">
<g clip-path="url(#clip0_119_331)">
<path d="M29.9297 8.60936C31.1804 7.93106 32.8095 7.928 34.0591 8.60936C40.3459 11.9751 46.6347 15.3357 52.9204 18.7035C54.1027 19.3345 54.8935 20.5811 54.8814 21.8718V42.1217C54.8902 43.4659 54.0213 44.7423 52.774 45.359C46.5078 48.7062 40.245 52.0575 33.9799 55.4048C32.7033 56.0963 31.0416 56.0431 29.8049 55.2948C27.9263 54.263 26.0445 53.2363 24.1657 52.2054C23.7818 51.9886 23.349 51.816 23.078 51.4633C23.3176 51.1573 23.7461 51.1191 24.0942 50.9855C24.8784 50.7493 25.5986 50.37 26.319 50.002C26.5011 49.8839 26.7236 49.9292 26.8982 50.0349C28.5046 50.9076 30.0968 51.8056 31.7086 52.67C32.0525 52.858 32.4006 52.6083 32.6945 52.4531C38.8435 49.1603 45.0001 45.88 51.148 42.5862C51.3758 42.4824 51.5017 42.2533 51.4832 42.0168C51.4875 35.3368 51.4843 28.6557 51.4854 21.9757C51.5114 21.7074 51.3476 21.4608 51.0916 21.351C44.8472 18.0191 38.606 14.682 32.3627 11.3493C32.2545 11.2788 32.1264 11.241 31.9951 11.2408C31.8639 11.2406 31.7356 11.2781 31.6272 11.3483C25.3839 14.682 19.1438 18.0221 12.9005 21.3539C12.6454 21.4638 12.4742 21.7064 12.5046 21.9757C12.5057 28.6557 12.5046 35.3368 12.5046 42.0179C12.4938 42.1332 12.5205 42.249 12.5812 42.3495C12.6419 42.45 12.7337 42.5305 12.8441 42.5801C14.5102 43.4752 16.1784 44.3641 17.8455 45.2562C18.7847 45.7351 19.9379 46.0197 20.9727 45.6528C21.8858 45.3425 22.5259 44.4596 22.5085 43.5409C22.5171 36.8999 22.5042 30.2579 22.5149 23.6179C22.4921 23.3231 22.7873 23.0795 23.0898 23.1072C23.8903 23.1021 24.6919 23.097 25.4924 23.1093C25.8266 23.1021 26.0565 23.4196 26.0152 23.7166C26.012 30.3997 26.0238 37.0829 26.0098 43.766C26.012 45.5471 25.2397 47.4851 23.5008 48.3566C21.3587 49.408 18.7111 49.185 16.5948 48.1768C14.7628 47.3105 13.0144 46.288 11.2149 45.3598C9.96435 44.7465 9.0997 43.465 9.10851 42.1219V21.8718C9.09539 20.5544 9.91764 19.2851 11.1367 18.6633C17.4018 15.3134 23.6658 11.9608 29.9297 8.60936Z" fill="#8CC84B"/>
<path d="M35.3954 22.6366C38.1278 22.47 41.053 22.5379 43.5119 23.8133C45.4156 24.7907 46.471 26.8419 46.5046 28.8458C46.4514 29.1161 46.1532 29.2652 45.8809 29.2467C45.0881 29.2456 44.2951 29.2569 43.5023 29.2416C43.166 29.2538 42.9706 28.96 42.9284 28.6783C42.7006 27.7195 42.1487 26.7699 41.1962 26.3074C39.734 25.6138 38.0387 25.6487 36.4443 25.6632C35.2804 25.7217 34.0288 25.8172 33.0427 26.4657C32.2856 26.957 32.0557 27.9486 32.3259 28.7473C32.5806 29.3207 33.2793 29.5057 33.8509 29.6763C37.1439 30.4923 40.6334 30.4111 43.8634 31.485C45.2007 31.9228 46.5089 32.7738 46.9667 34.1005C47.5654 35.8785 47.303 38.0038 45.9678 39.4312C44.8851 40.6058 43.3081 41.2451 41.7353 41.5924C39.643 42.0344 37.4715 42.0456 35.3467 41.8494C33.3486 41.6336 31.2694 41.1362 29.7269 39.8463C28.4079 38.7612 27.7637 37.0705 27.8277 35.4387C27.8429 35.1631 28.1325 34.9709 28.4112 34.9936C29.2095 34.9874 30.0079 34.9854 30.8062 34.9946C31.1251 34.973 31.3615 35.2341 31.3779 35.5188C31.5252 36.4324 31.8875 37.3912 32.7283 37.9328C34.3509 38.9246 36.3868 38.8567 38.2448 38.8845C39.784 38.8198 41.5118 38.8002 42.7679 37.8363C43.4307 37.2865 43.627 36.3667 43.4479 35.5753C43.2539 34.9073 42.5162 34.5959 41.8828 34.3924C38.6321 33.4181 35.1036 33.7716 31.8843 32.6698C30.5774 32.2322 29.3135 31.4048 28.8114 30.1326C28.1108 28.3321 28.4318 26.105 29.9069 24.7258C31.3452 23.3539 33.4214 22.8257 35.3954 22.6366Z" fill="#8CC84B"/>
</g>
<defs>
<clipPath id="clip0_119_331">
<rect width="46" height="48" fill="white" transform="translate(9 8)"/>
</clipPath>
</defs>
</svg>
